<?xml version="1.0" encoding="UTF-8" standalone="no"?>
<!DOCTYPE svg PUBLIC "-//W3C//DTD SVG 1.1//EN"
"http://www.w3.org/Graphics/SVG/1.1/DTD/svg11.dtd">


<!-- Page 1 -->
<svg x="0" y="0" width="528" height="150" viewBox="200 100 528 150" version="1.1" xmlns="http://www.w3.org/2000/svg" xmlns:xlink="http://www.w3.org/1999/xlink"
style="display: block;margin-left: auto;margin-right: auto;">
<defs>

<style type="text/css"><![CDATA[

.g0_1{
fill: #ED7D31;
}
.g1_1{
fill: #FFFFFF;
}
.g2_1{
fill: none;
stroke: #ED7C30;
stroke-width: 0.79444444;
stroke-linecap: butt;
stroke-linejoin: round;
}

]]></style>

</defs>
<path d="M0,0
L0,1286
L909,1286
L909,0 Z "
fill="#FFFFFF" stroke="none" />
<image preserveAspectRatio="none" x="108" y="114" width="753" height="371" xlink:href="1/img/1.png" />
<path fill-rule="evenodd" d="M309.9,148.5c2.7,-1,6.2,-1.7,10.7,-2c5.5,-.5,8.6,.3,9.4,2.3c.6,1.4,.6,2.9,0,4.4c-.6,1.6,-1.7,2.8,-3.5,3.5c-1.2,.5,-3.3,1,-6,1.5c-2.8,.4,-4.8,.9,-6.2,1.5c-3.5,1.4,-6.5,3.6,-9,6.5c-2.6,3,-3.5,5.5,-2.7,7.5c.4,1,1.2,1.7,2.5,2c1.3,.2,2.9,.1,5.1,-.4c3.5,-1.2,7.1,-2.4,10.6,-3.6c6.3,-1.9,11.8,-2.1,16.5,-.6c5.2,1.8,8.9,5.5,11.2,11.3c2.8,7.1,.9,14,-5.7,20.9c-5,5.2,-11.4,9.3,-19.3,12.5c-7,2.7,-13.1,3.3,-18.3,1.8c-4.4,-1.2,-7.2,-3.5,-8.6,-6.9c-.6,-1.7,-.7,-3.3,-.1,-4.9c.6,-1.5,1.8,-2.7,3.6,-3.4c2.5,-1,4.8,-.4,6.9,1.6c2.9,2.8,7.1,3.1,12.6,.9c4.7,-1.9,8.9,-4.7,12.5,-8.5c3.7,-4,5.1,-7.2,4.1,-9.7c-1.4,-3.4,-3.7,-5.1,-7,-5.1c-2.3,0,-6.6,1.2,-12.8,3.4c-4.7,1.8,-9.3,2.6,-13.7,2.4c-6,-.2,-9.8,-2.5,-11.4,-6.8c-2,-5.3,-1.1,-11.3,2.7,-18c3.9,-6.7,9.2,-11.4,15.9,-14.1Z" class="g0_1" />
<path fill-rule="evenodd" d="M322.5,146.7l-1.9,.1L319,147l-1.5,.2l-1.5,.2l-1.3,.2l-1.3,.3l-1.2,.3l-1.1,.3l-1,.4l-2.5,1.1l-2.3,1.3l-2.1,1.4l-2,1.7l-1.9,1.8l-1.8,2l-1.6,2.2l-1.5,2.4l-.7,1.2l-.6,1.2l-.5,1.2l-.5,1.2l-.4,1.2l-.4,1.1l-.2,1.1l-.2,1.2l-.2,1.1v2.1l.1,1.1l.1,1l.2,1l.3,1l.3,1l.7,1.5l.8,1.2l1.1,1.1l1.3,.9l1.4,.7l1.7,.6l1.9,.3l2.1,.2l1.6,.1L306,187l1.6,-.2l1.8,-.2l1.7,-.3l1.7,-.5l1.7,-.5l1.8,-.6l2.2,-.8l2.1,-.7l1.9,-.6l1.7,-.5l1.5,-.4l1.3,-.3l1.2,-.1l1,-.1l1.2,.1h.1l1.1,.2l1,.4q.1,0,.1,.1l.9,.5c0,0,.1,0,.1,.1l.8,.7l.8,.9l.7,1.1l.5,1.2q0,.1,0,.1l.3,1v.1l.1,1c0,0,0,.1,0,.1l-.2,1.1v.1l-.5,1.2l-.6,1.3l-.9,1.3l-1,1.4l-1.3,1.5L331,198l-1.5,1.3l-1.5,1.3l-1.5,1.1l-1.6,1l-1.7,1l-1.7,.8l-1.7,.8l-2.1,.7l-1.9,.4l-1.8,.3h-1.6c0,0,-.1,0,-.1,0l-1.5,-.2c0,0,-.1,0,-.1,0l-1.4,-.5l-1.3,-.7h-.1l-1.1,-.9l-.8,-.7l-.8,-.6l-.8,-.3l-.8,-.3l-.8,-.1H302l-.9,.1l-.8,.3l-1.2,.6l-1,.7l-.7,.9l-.5,1l-.3,1.1l-.1,1.1l.1,1.2l.4,1.2l.5,1.1l.7,1.1l.9,1l.9,.9l1.1,.8l1.3,.6l1.4,.6l1.5,.6l2,.4l2,.3h2.2l2.2,-.1l2.2,-.3l2.4,-.6l2.5,-.7l2.5,-.9l2.9,-1.2l2.7,-1.3l2.6,-1.4l2.5,-1.6l2.3,-1.5l2.2,-1.7l2.1,-1.8l1.9,-1.9l1.2,-1.3l1.1,-1.2l.9,-1.3l.9,-1.3l.7,-1.3l.6,-1.2l.5,-1.3l.4,-1.3l.3,-1.2l.2,-1.3l.1,-1.3l-.1,-1.3l-.1,-1.3l-.2,-1.2l-.4,-1.3l-.4,-1.3l-1,-2.1l-1,-1.8L345,177l-1.3,-1.5l-1.4,-1.3l-1.6,-1l-1.7,-1l-1.8,-.7l-1.8,-.5l-1.8,-.3l-1.9,-.2h-2l-2.1,.2l-2.1,.3l-2.2,.4l-2.3,.7l-10.8,3.6l-1.5,.3l-1.4,.2h-1.2l-1,-.1q-.1,0,-.1,0l-.9,-.3l-.1,-.1l-.7,-.4h-.1l-.5,-.6c0,0,-.1,-.1,-.1,-.1l-.4,-.7c0,0,0,-.1,0,-.1l-.2,-.7q0,-.1,0,-.1l-.1,-.9l.1,-.9v-.1l.3,-.9l.4,-1l.6,-1.1l.8,-1l.9,-1.2l1,-1l1,-1l1.1,-1l1.1,-.8l1.2,-.8l1.2,-.8l1.3,-.6l1.3,-.6l1.1,-.4l1.5,-.4l1.7,-.4l1.9,-.3l1,-.2l.9,-.2l.9,-.1l.8,-.2l.7,-.2l.6,-.2l.6,-.2l.5,-.1l1.1,-.6l.9,-.8l.8,-.9l.5,-1.1l.3,-1l.1,-1l-.1,-1l-.3,-1l-.4,-.6l-.5,-.5l-.8,-.4l-1,-.4l-1.2,-.2l-1.5,-.1Zm0,-.8l1.8,.1l1.5,.1l1.3,.2l1.2,.4l.9,.5l.1,.1l.6,.5q0,.1,.1,.1l.4,.7c0,0,0,.1,0,.1l.3,1.1v.1l.2,1q0,.1,0,.1l-.1,1.1c0,0,-.1,.1,-.1,.1l-.3,1.1v.1l-.6,1.1c0,0,0,.1,0,.1l-.8,1l-1,.8l-.1,.1l-1.2,.6l-.5,.2l-.6,.2l-.7,.2l-.7,.2l-.8,.1l-.9,.2l-.9,.2l-1.1,.2l-1.9,.3l-1.7,.4l-1.3,.4l-1.1,.4l-1.3,.5l-1.2,.6l-1.2,.7l-1.1,.8l-1.1,.8l-1.1,.9l-1,1l-.9,1.1l-.9,1.1l-.7,1l-.6,1l-.4,.9l-.2,.8l-.1,.8l.1,.8l.1,.7l.4,.6l.5,.5l.6,.3l.8,.3l.9,.1h1.2l1.3,-.2l1.5,-.3l10.6,-3.6l2.3,-.6l2.3,-.5l2.2,-.3l2.1,-.2h2.1l1.9,.2l1.9,.3l1.9,.5l1.9,.8l1.8,1l1.6,1.1l1.5,1.3l1.4,1.6l1.3,1.7l1,1.9l1,2.1l.5,1.4l.3,1.4l.3,1.3l.1,1.3l.1,1.4l-.1,1.3l-.2,1.4l-.3,1.3l-.4,1.3l-.6,1.4L348,197l-.8,1.3l-.8,1.3l-1,1.3l-1.1,1.3l-1.2,1.3l-1.9,1.9l-2.1,1.9l-2.3,1.7l-2.4,1.6l-2.5,1.5l-2.6,1.5l-2.8,1.3l-2.9,1.2l-2.6,1l-2.4,.7l-2.5,.5l-2.3,.4l-2.3,.1h-2.2l-2.1,-.3l-2.1,-.5l-1.6,-.5l-1.4,-.6l-1.4,-.8l-1.1,-.8l-1.1,-.9l-.9,-1.1l-.7,-1.1l-.6,-1.3l-.4,-1.3c0,0,0,-.1,0,-.1l-.2,-1.2c0,0,0,-.1,0,-.1l.1,-1.2c0,0,0,-.1,0,-.1l.3,-1.2l.6,-1.1q0,-.1,.1,-.1l.7,-.9q.1,-.1,.1,-.1l1,-.8c0,0,.1,0,.1,0l1.2,-.6c.1,0,.1,-.1,.1,-.1l.9,-.3c0,0,.1,0,.1,0l.9,-.1h.9q.1,0,.1,0l.9,.1l.9,.3l.9,.4v.1l.9,.5l.8,.7l1.1,.9l1.2,.7l1.3,.4l1.5,.2H314l1.7,-.2l1.8,-.5l2,-.7l1.7,-.7l1.7,-.9l1.6,-.9l1.6,-1l1.5,-1.1l1.4,-1.2l1.4,-1.2l1.4,-1.4l1.3,-1.4l1,-1.4l.8,-1.3l.6,-1.2l.4,-1l.2,-1.1l-.1,-1l-.2,-.9l-.6,-1.1l-.6,-1l-.7,-.8l-.7,-.7l-.9,-.5l-.9,-.4l-1.1,-.2l-1.1,-.1h-1l-1.1,.2l-1.3,.3l-1.5,.4l-1.6,.4l-1.9,.6l-2,.7l-2.2,.8l-1.8,.6l-1.8,.6l-1.7,.4l-1.8,.4l-1.7,.2l-1.7,.2l-1.7,.1l-1.7,-.1l-2.2,-.2l-2,-.3l-1.7,-.6q-.1,0,-.1,0l-1.5,-.8h-.1l-1.3,-1l-1.1,-1.1q-.1,-.1,-.1,-.1l-.9,-1.3v-.1l-.7,-1.5l-.4,-1l-.3,-1.1l-.2,-1.1l-.1,-1.1l-.1,-1.1v-2.2l.2,-1.1l.2,-1.2l.3,-1.2l.3,-1.2l.4,-1.2l.5,-1.2l.6,-1.2l.6,-1.2l.7,-1.3l1.5,-2.4l1.7,-2.3l1.8,-2l1.9,-1.9l2.1,-1.7l2.2,-1.5l2.4,-1.3l2.5,-1.1l1,-.4l1.2,-.4l1.2,-.3l1.3,-.3l1.4,-.2l1.5,-.2l1.5,-.2l1.6,-.1Z" class="g0_1" />
<path fill-rule="evenodd" d="M306.7,145.3c2.7,-1.1,6.2,-1.8,10.6,-2.1c5.5,-.4,8.7,.4,9.5,2.4c.5,1.4,.6,2.9,0,4.3c-.6,1.7,-1.8,2.9,-3.5,3.6c-1.3,.5,-3.3,1,-6.1,1.4c-2.8,.5,-4.8,1,-6.1,1.5c-3.5,1.5,-6.5,3.6,-9,6.6c-2.7,3,-3.6,5.5,-2.8,7.5c.4,1,1.3,1.6,2.6,1.9c1.2,.3,2.9,.2,5,-.3c3.6,-1.2,7.1,-2.4,10.7,-3.6c6.3,-2,11.7,-2.2,16.4,-.6c5.2,1.7,9,5.5,11.3,11.3c2.8,7,.9,14,-5.7,20.8c-5,5.2,-11.5,9.4,-19.4,12.5c-6.9,2.8,-13,3.4,-18.2,1.9c-4.4,-1.2,-7.3,-3.5,-8.6,-6.9c-.7,-1.7,-.7,-3.4,-.1,-4.9c.5,-1.6,1.8,-2.7,3.6,-3.4c2.5,-1,4.7,-.5,6.9,1.6c2.9,2.7,7.1,3,12.6,.8c4.7,-1.8,8.8,-4.7,12.4,-8.5c3.8,-3.9,5.1,-7.1,4.1,-9.6c-1.4,-3.5,-3.7,-5.2,-6.9,-5.1c-2.4,0,-6.6,1.1,-12.8,3.4c-4.8,1.8,-9.4,2.6,-13.8,2.4c-5.9,-.3,-9.7,-2.5,-11.3,-6.8C286,172,286.9,166,290.8,159.3c3.8,-6.6,9.1,-11.3,15.9,-14Z" class="g1_1" />
<path d="M306.7,145.3c2.7,-1.1,6.2,-1.8,10.6,-2.1c5.5,-.4,8.7,.4,9.5,2.4c.5,1.4,.6,2.9,0,4.3c-.6,1.7,-1.8,2.9,-3.5,3.6c-1.3,.5,-3.3,1,-6.1,1.4c-2.8,.5,-4.8,1,-6.1,1.5c-3.5,1.5,-6.5,3.6,-9,6.6c-2.7,3,-3.6,5.5,-2.8,7.5c.4,1,1.3,1.6,2.6,1.9c1.2,.3,2.9,.2,5,-.3c3.6,-1.2,7.1,-2.4,10.7,-3.6c6.3,-2,11.7,-2.2,16.4,-.6c5.2,1.7,9,5.5,11.3,11.3c2.8,7,.9,14,-5.7,20.8c-5,5.2,-11.5,9.4,-19.4,12.5c-6.9,2.8,-13,3.4,-18.2,1.9c-4.4,-1.2,-7.3,-3.5,-8.6,-6.9c-.7,-1.7,-.7,-3.4,-.1,-4.9c.5,-1.6,1.8,-2.7,3.6,-3.4c2.5,-1,4.7,-.5,6.9,1.6c2.9,2.7,7.1,3,12.6,.8c4.7,-1.8,8.8,-4.7,12.4,-8.5c3.8,-3.9,5.1,-7.1,4.1,-9.6c-1.4,-3.5,-3.7,-5.2,-6.9,-5.1c-2.4,0,-6.6,1.1,-12.8,3.4c-4.8,1.8,-9.4,2.6,-13.8,2.4c-5.9,-.3,-9.7,-2.5,-11.3,-6.8C286,172,286.9,166,290.8,159.3c3.8,-6.6,9.1,-11.3,15.9,-14Z" class="g2_1" />
<path fill-rule="evenodd" d="M359.3,136.5c4.2,-1,7.2,2,9,9.1l.7,3.6c1.7,-.7,3.2,-1.2,4.3,-1.5c3.3,-.8,5.6,-1.1,6.9,-1c2.4,.3,4,1.7,4.7,4.4c.4,1.6,.2,3.1,-.7,4.5c-.8,1.4,-2.1,2.3,-3.8,2.7c-.6,.1,-1.4,.3,-2.2,.4c-.8,.2,-1.5,.3,-2.1,.5c-1.2,.3,-2.5,.7,-4,1.3c3.4,11.5,5.5,18.9,6.3,22.5c.1,.3,.3,1,.6,2c.3,1.1,.5,1.9,.6,2.5c1.6,6.6,.4,10.4,-3.8,11.4c-1.5,.4,-3,.2,-4.4,-.5c-1.5,-.7,-2.5,-1.8,-2.8,-3.4c-.3,-1,-.6,-2.6,-1,-4.6c-.5,-2.1,-.8,-3.7,-1.1,-4.7c-.8,-3.5,-2.9,-10.8,-6.2,-22c-1.8,.3,-4.5,.7,-8.2,1.3c-3.7,.4,-5.9,-1,-6.7,-4.3c-.4,-1.6,-.2,-3.1,.6,-4.5c.8,-1.3,2.1,-2.2,3.8,-2.7c1.1,-.2,3.5,-.6,7.4,-1.2c-.2,-.9,-.7,-2.4,-1.3,-4.5c-.6,-1.8,-1,-3.2,-1.2,-4.2c-.4,-1.6,-.2,-3.1,.7,-4.5c1,-1.3,2.2,-2.2,3.9,-2.6Z" class="g0_1" />
<path fill-rule="evenodd" d="M360.9,136.7l-.7,.1l-.8,.1l-1.1,.4l-1,.5l-.8,.7l-.7,.9l-.5,.9l-.3,1l-.1,1.1l.2,1.1l.2,.8l.2,1l.4,1.1l.4,1.3l.4,1.4l.4,1.3l.3,1l.2,.8c0,.1,0,.2,-.1,.3c0,.1,-.1,.2,-.2,.2l-1.4,.2l-1.3,.2l-1.1,.2l-1,.1l-.8,.2l-.8,.1l-.5,.1l-.5,.1l-1.1,.4l-1,.6l-.8,.7l-.7,.9l-.4,.9l-.3,1.1v1l.2,1.1l.3,1.1l.5,.9l.6,.8l.7,.5l.8,.4l1,.3h2.4l1.3,-.2l1.2,-.2l1.2,-.2l1.1,-.1l1,-.2l.8,-.1l.8,-.2l.8,-.1c.1,0,.3,.1,.4,.3l.6,2l.6,2l.5,1.9l.6,1.8l.4,1.7l.5,1.6l.4,1.5l.4,1.4l.4,1.3l.4,1.3l.3,1.1l.3,1.1l.2,1l.3,.8l.2,.8l.1,.7l.2,.9l.3,1.1l.2,1.2l.3,1.5l.3,1.5l.3,1.2l.2,1.1l.2,.8l.4,1l.6,.9l.7,.7l1,.6l1,.4l1,.2h1l1.1,-.2l1.4,-.5l1,-.7l.8,-.9l.6,-1.2l.3,-1.5l.1,-1.8l-.2,-2l-.4,-2.3l-.2,-.5l-.1,-.6l-.2,-.6l-.2,-.7l-.2,-.7l-.2,-.6l-.1,-.5l-.1,-.3l-.1,-.7l-.2,-.8l-.3,-.9l-.2,-1l-.3,-1.1l-.3,-1.2l-.4,-1.2l-.4,-1.4l-.4,-1.4l-.4,-1.6l-.5,-1.6l-.5,-1.7l-.5,-1.9l-.6,-1.9l-.6,-2l-.6,-2.1c0,-.2,.1,-.4,.3,-.4l2.1,-.8l1.9,-.6l1,-.2l1.2,-.3l1.1,-.2l.9,-.2l1.2,-.4l1,-.5l.8,-.7l.7,-.9l.4,-1l.3,-1l.1,-1.1l-.2,-1.1l-.3,-.9l-.3,-.7l-.5,-.7l-.5,-.6l-.5,-.5l-.7,-.3l-.7,-.2l-.9,-.2H379l-.7,.1l-.8,.1l-.9,.1l-.9,.2l-1.1,.2l-1.2,.3l-.9,.3l-1,.3l-1.1,.4l-1.2,.5c-.1,0,-.2,0,-.3,-.1c-.1,0,-.2,-.1,-.2,-.2l-.8,-3.5l-.3,-1.3l-.4,-1.2l-.4,-1.1l-.4,-.9l-.5,-.9l-.4,-.8l-.5,-.7l-.5,-.6l-.6,-.5l-.5,-.4l-.6,-.3l-.6,-.2l-.7,-.1Zm-.1,-.8l.8,.1l.7,.1l.7,.3q.1,0,.1,0l.6,.3l.7,.5l.6,.5l.6,.7l.5,.7l.5,.9l.5,.9l.4,1l.4,1.1l.4,1.3l.4,1.3l.6,3.1l.8,-.4l1.2,-.4l1,-.3l.9,-.2l1.2,-.3l1.1,-.3l1,-.2l.9,-.1l.8,-.1l.8,-.1h1.2l.9,.2c0,0,.1,0,.1,0l.8,.3l.8,.4l.7,.5l.6,.6q0,.1,0,.1l.5,.7l.4,.9l.3,1l.2,1.3l-.1,1.2v.1l-.3,1.1l-.5,1.1c0,0,-.1,0,-.1,0l-.7,1l-.9,.8c0,0,-.1,0,-.1,0l-1,.6q-.1,0,-.1,0l-1.2,.4l-1,.3l-1.2,.2l-1.1,.2l-1,.3l-1.9,.5l-1.7,.7l.5,1.7l.6,2l.5,1.9l.6,1.8l.5,1.8l.4,1.6l.5,1.6l.4,1.4l.4,1.4l.3,1.2l.3,1.2l.3,1.1l.3,1l.2,.9l.2,.8l.2,.7l.1,.3l.1,.5l.2,.5l.2,.8l.2,.7l.1,.6l.2,.6l.1,.5l.5,2.4l.2,2.1l-.1,1.8q0,.1,0,.1l-.3,1.6h-.1l-.6,1.3q0,.1,0,.1l-.9,1.1c0,0,-.1,0,-.1,0l-1.1,.8c0,0,-.1,0,-.1,0l-1.4,.6q-.1,0,-.1,0l-1.2,.2h-1.2l-1.1,-.3c0,0,-.1,0,-.1,0l-1,-.4q-.1,0,-.1,0l-1,-.6c0,-.1,-.1,-.1,-.1,-.1l-.8,-.8c0,0,-.1,0,-.1,0l-.6,-1l-.4,-1.1l-.2,-.9l-.3,-1.1l-.2,-1.3l-.3,-1.4l-.3,-1.5l-.3,-1.3l-.2,-1l-.2,-.9l-.2,-.7l-.2,-.8l-.2,-.8l-.3,-1l-.3,-1.1l-.3,-1.1l-.4,-1.2l-.3,-1.4l-.4,-1.4l-.5,-1.5l-.4,-1.6l-.5,-1.7l-.5,-1.8l-.6,-1.9l-.5,-1.9l-.5,-1.8l-.4,.1l-.8,.2l-.9,.1l-1,.2l-1.1,.1l-1.1,.2l-1.3,.2l-1.3,.2h-2.7l-1,-.3c0,0,-.1,0,-.1,0l-.9,-.5c0,0,-.1,0,-.1,0l-.7,-.6q-.1,-.1,-.1,-.1l-.6,-.8q-.1,0,-.1,-.1l-.5,-.9c0,0,0,-.1,0,-.1l-.4,-1.2l-.2,-1.2v-1.2c0,0,.1,-.1,.1,-.1l.2,-1.1l.1,-.1l.4,-1c.1,0,.1,-.1,.1,-.1l.7,-.9c0,0,0,-.1,0,-.1l.9,-.8h.1l1,-.6h.1l1.2,-.4l.5,-.1l.6,-.2l.7,-.1l.9,-.2l1,-.1l1.1,-.2l1.3,-.2l.9,-.1l-.1,-.4l-.3,-1l-.4,-1.3l-.4,-1.4l-.4,-1.3l-.3,-1.1l-.3,-1l-.2,-.8l-.2,-1.2q0,-.1,0,-.1l.1,-1.1q0,-.1,0,-.1l.3,-1.1c0,0,0,-.1,0,-.1l.6,-1c0,0,0,-.1,0,-.1l.8,-.9v-.1l.9,-.7q.1,0,.1,-.1l1,-.5q.1,0,.1,0l1.2,-.4l.8,-.2Z" class="g0_1" />
<path fill-rule="evenodd" d="M356.1,133.3c4.2,-1.1,7.2,2,8.9,9.1l.8,3.5c1.7,-.7,3.1,-1.1,4.2,-1.4c3.3,-.8,5.6,-1.1,6.9,-1c2.5,.2,4.1,1.7,4.7,4.4c.4,1.6,.2,3.1,-.6,4.4c-.9,1.4,-2.2,2.3,-3.9,2.7c-.6,.2,-1.3,.3,-2.1,.5c-.8,.1,-1.5,.3,-2.2,.4c-1.1,.3,-2.5,.8,-3.9,1.4c3.3,11.4,5.4,18.9,6.3,22.4c.1,.4,.3,1.1,.5,2.1c.3,1,.5,1.8,.7,2.4c1.6,6.6,.3,10.4,-3.8,11.4c-1.6,.4,-3.1,.3,-4.4,-.4c-1.5,-.7,-2.5,-1.9,-2.9,-3.4c-.2,-1,-.6,-2.6,-1,-4.7c-.4,-2.1,-.7,-3.6,-1,-4.6c-.8,-3.5,-2.9,-10.8,-6.2,-22.1c-1.8,.4,-4.6,.8,-8.2,1.3c-3.7,.5,-6,-.9,-6.8,-4.2c-.4,-1.6,-.2,-3.1,.7,-4.5c.8,-1.4,2,-2.3,3.7,-2.7c1.1,-.3,3.6,-.7,7.5,-1.3c-.3,-.9,-.7,-2.4,-1.4,-4.5c-.5,-1.8,-.9,-3.2,-1.2,-4.2c-.4,-1.6,-.1,-3,.8,-4.4c.9,-1.3,2.2,-2.2,3.9,-2.6Z" class="g1_1" />
<path d="M356.1,133.3c4.2,-1.1,7.2,2,8.9,9.1l.8,3.5c1.7,-.7,3.1,-1.1,4.2,-1.4c3.3,-.8,5.6,-1.1,6.9,-1c2.5,.2,4.1,1.7,4.7,4.4c.4,1.6,.2,3.1,-.6,4.4c-.9,1.4,-2.2,2.3,-3.9,2.7c-.6,.2,-1.3,.3,-2.1,.5c-.8,.1,-1.5,.3,-2.2,.4c-1.1,.3,-2.5,.8,-3.9,1.4c3.3,11.4,5.4,18.9,6.3,22.4c.1,.4,.3,1.1,.5,2.1c.3,1,.5,1.8,.7,2.4c1.6,6.6,.3,10.4,-3.8,11.4c-1.6,.4,-3.1,.3,-4.4,-.4c-1.5,-.7,-2.5,-1.9,-2.9,-3.4c-.2,-1,-.6,-2.6,-1,-4.7c-.4,-2.1,-.7,-3.6,-1,-4.6c-.8,-3.5,-2.9,-10.8,-6.2,-22.1c-1.8,.4,-4.6,.8,-8.2,1.3c-3.7,.5,-6,-.9,-6.8,-4.2c-.4,-1.6,-.2,-3.1,.7,-4.5c.8,-1.4,2,-2.3,3.7,-2.7c1.1,-.3,3.6,-.7,7.5,-1.3c-.3,-.9,-.7,-2.4,-1.4,-4.5c-.5,-1.8,-.9,-3.2,-1.2,-4.2c-.4,-1.6,-.1,-3,.8,-4.4c.9,-1.3,2.2,-2.2,3.9,-2.6Z" class="g2_1" />
<path fill-rule="evenodd" d="M413.1,154.2c-3.5,.5,-6.1,2.5,-7.7,6.1c-1.4,3,-1.8,6.4,-1.3,10.1c.5,3.5,1.9,6,4.2,7.6c1.8,1.2,3.7,1.7,5.8,1.4c2.5,-.4,4.6,-1.5,6.2,-3.5c1.9,-2.3,2.6,-5.2,2.3,-8.7c-1,-9.4,-4.2,-13.8,-9.5,-13ZM412,142.6c5.9,-.9,10.8,.8,14.9,4.9c3.7,3.8,6,8.8,6.9,15c1,6.7,0,12.8,-2.9,18.1c-3.3,5.9,-8.3,9.3,-15.1,10.3c-5.4,.8,-10.3,-.4,-14.7,-3.5c-4.9,-3.5,-7.9,-8.6,-9.1,-15.3c-1.1,-6.4,-.2,-12.4,2.8,-18c3.6,-6.5,9.3,-10.4,17.2,-11.5Z" class="g0_1" />
<path fill-rule="evenodd" d="M414.1,154.5l-.9,.1l-1.3,.2l-1.1,.4l-1.1,.5l-1,.7l-.8,.8l-.8,1l-.8,1l-.6,1.3l-.4,1.1l-.4,1.2l-.3,1.1l-.2,1.2l-.1,1.3v1.3l.1,1.3l.1,1.3l.3,1.3l.3,1.1l.4,1.1l.4,.9l.6,.9l.6,.8l.7,.7l.7,.6l.7,.4l.6,.3l.7,.3l.7,.2l.7,.1l.7,.1h.7l.8,-.1l.9,-.1l.8,-.3l.8,-.3l.8,-.4l.7,-.4l.7,-.6l.6,-.6l.6,-.7l.7,-.8l.5,-1l.4,-.9l.3,-1l.2,-1.1l.1,-1.1v-2.5l-.2,-1.6l-.3,-1.6l-.3,-1.5l-.4,-1.3l-.4,-1.2l-.4,-1.1l-.5,-1l-.6,-.8l-.6,-.7l-.6,-.6l-.6,-.5l-.8,-.4l-.7,-.2l-.8,-.2Zm0,-.8h1l.9,.2l.9,.3l.8,.4v.1l.8,.5l.7,.7l.6,.8l.6,.9l.5,1l.5,1.1l.4,1.3l.4,1.4l.3,1.5l.3,1.6l.1,1.7l.1,1.3v1.3l-.1,1.2l-.3,1.1l-.3,1.1l-.5,1l-.5,1l-.7,1l-.6,.7l-.7,.6l-.8,.6l-.7,.5l-.9,.4l-.9,.4l-.9,.2l-1,.2l-.8,.1h-.8l-.8,-.1l-.7,-.1l-.8,-.3l-.7,-.3l-.8,-.3l-.7,-.5l-.8,-.7l-.7,-.7l-.7,-.9l-.6,-.9l-.5,-1.1l-.4,-1.1l-.3,-1.2l-.3,-1.3l-.1,-1.4l-.1,-1.4v-1.3l.2,-1.3l.2,-1.3l.3,-1.2l.3,-1.2l.5,-1.2l.7,-1.3l.8,-1.2l.8,-1l1,-.9l1.1,-.7l1.1,-.5l1.3,-.5l1.3,-.2Zm.1,-10.9l-2.1,.2l-2.8,.5l-2.6,.8l-2.4,1l-2.2,1.3l-2,1.6l-1.9,1.8l-1.6,2l-1.4,2.3l-1,2.1l-.8,2.1l-.7,2.2l-.4,2.2l-.3,2.2v2.3l.1,2.3l.3,2.3l.5,2.5l.7,2.2l.9,2.1l1,2l1.2,1.8l1.4,1.6l1.5,1.5l1.7,1.3l1.6,1.1l1.7,.9l1.8,.7l1.7,.5l1.8,.4l1.9,.1h1.9l2,-.2l2.4,-.5l2.3,-.7l2.1,-.9l1.9,-1.1l1.8,-1.4l1.6,-1.6l1.5,-1.9l1.3,-2l1,-2l.7,-2.1l.7,-2.1l.4,-2.2l.3,-2.2l.1,-2.4l-.1,-2.4l-.3,-2.5l-.4,-2.2l-.5,-2.1l-.6,-2l-.8,-1.9l-.9,-1.8l-1.1,-1.7L428,149.3l-1.3,-1.5l-1.6,-1.4l-1.6,-1.2l-1.7,-.9l-1.8,-.7l-1.8,-.5l-2,-.3Zm-.1,-.8h2.2l2,.3l1.9,.5l1.9,.8l1.8,1l1.7,1.2l1.6,1.4l1.4,1.5l1.2,1.6l1,1.8l1,1.8l.8,2l.7,2l.5,2.2l.4,2.3l.3,2.5l.1,2.5l-.1,2.4l-.3,2.3l-.4,2.3l-.7,2.2l-.8,2.1l-1,2l-1.4,2.2l-1.5,1.9l-1.6,1.6l-1.9,1.5l-2,1.2l-2.2,1l-2.3,.7l-2.6,.5l-2,.2h-2l-1.9,-.1L408,191l-1.9,-.5l-1.8,-.8l-1.7,-.9l-1.7,-1.1l-1.8,-1.4l-1.6,-1.5l-1.4,-1.7l-1.2,-1.9l-1.1,-2l-.9,-2.2l-.7,-2.3l-.5,-2.5l-.4,-2.4l-.1,-2.4v-2.3l.3,-2.3l.5,-2.3l.6,-2.2l.8,-2.2l1.1,-2.1l1.4,-2.4l1.7,-2.1l1.9,-1.9l2.1,-1.6l2.3,-1.4l2.5,-1l2.7,-.9l2.9,-.5Z" class="g0_1" />
<path fill-rule="evenodd" d="M409.9,150.9c-3.6,.5,-6.2,2.6,-7.8,6.2c-1.3,3,-1.7,6.3,-1.2,10c.5,3.5,1.9,6.1,4.1,7.6c1.8,1.3,3.8,1.8,5.9,1.5c2.5,-.4,4.6,-1.6,6.2,-3.6c1.8,-2.3,2.6,-5.2,2.2,-8.6c-1,-9.5,-4.1,-13.8,-9.4,-13.1Zm-1.1,-11.6c5.8,-.8,10.8,.8,14.9,5c3.7,3.7,6,8.7,6.9,14.9c1,6.8,0,12.8,-2.9,18.1c-3.3,5.9,-8.4,9.4,-15.2,10.4c-5.4,.7,-10.3,-.4,-14.7,-3.6c-4.8,-3.4,-7.8,-8.5,-9,-15.2c-1.1,-6.4,-.2,-12.4,2.8,-18c3.6,-6.6,9.3,-10.5,17.2,-11.6Z" class="g1_1" />
<path d="M409.9,150.9c-3.6,.5,-6.2,2.6,-7.8,6.2c-1.3,3,-1.7,6.3,-1.2,10c.5,3.5,1.9,6.1,4.1,7.6c1.8,1.3,3.8,1.8,5.9,1.5c2.5,-.4,4.6,-1.6,6.2,-3.6c1.8,-2.3,2.6,-5.2,2.2,-8.6c-1,-9.5,-4.1,-13.8,-9.4,-13.1Zm-1.1,-11.6c5.8,-.8,10.8,.8,14.9,5c3.7,3.7,6,8.7,6.9,14.9c1,6.8,0,12.8,-2.9,18.1c-3.3,5.9,-8.4,9.4,-15.2,10.4c-5.4,.7,-10.3,-.4,-14.7,-3.6c-4.8,-3.4,-7.8,-8.5,-9,-15.2c-1.1,-6.4,-.2,-12.4,2.8,-18c3.6,-6.6,9.3,-10.5,17.2,-11.6Z" class="g2_1" />
<path fill-rule="evenodd" d="M445,136.4c3.9,-.2,6,2,6.5,6.6l.1,.5c4.1,-4.6,8.5,-7,13.3,-7.2c5.5,-.3,9.5,1.8,11.8,6.4c1.6,3,2.5,7.6,2.9,13.8l.1,3.2c.1,1.3,.1,2.3,.1,2.8c.2,2.3,.6,5.2,1.4,8.8c.9,3.6,1.3,6.5,1.4,8.8c.1,1.6,-.4,3.1,-1.5,4.2c-1.1,1.1,-2.6,1.8,-4.3,1.9c-3.6,.1,-5.7,-1.5,-6.3,-5.1c-.6,-3,-1.1,-6,-1.7,-9c-.6,-3.2,-1,-6.3,-1.1,-9.1c-.1,-.8,-.1,-2.1,-.1,-4c0,-1.8,0,-3.1,-.1,-3.9c0,-.2,0,-.7,.1,-1.6c0,-.8,0,-1.5,-.1,-2c-.1,-2.5,-.7,-3.6,-1.9,-3.6c-2.5,.2,-4.9,1.9,-7.2,5.3c-2.2,3.3,-3.9,7.5,-5,12.6c0,1,-.1,2.3,-.2,4c-.1,1.3,-.1,2.7,0,4c0,.8,0,2.1,-.1,3.8c-.1,1.7,-.1,3,-.1,3.8c.1,1.7,-.4,3.2,-1.5,4.4c-1.1,1.2,-2.5,1.8,-4.3,1.9c-1.8,.1,-3.3,-.4,-4.5,-1.5c-1.2,-1,-1.8,-2.4,-1.9,-4.1c-.1,-.9,-.2,-2.1,-.5,-3.8c-.2,-1.7,-.4,-2.9,-.4,-3.8c-.2,-2.9,-.2,-6.9,0,-12c.1,-5.1,.1,-9.1,0,-12c-.1,-.9,-.2,-2.2,-.4,-4c-.2,-1.8,-.3,-3.1,-.4,-4c0,-1.7,.5,-3.1,1.6,-4.2c1.1,-1.2,2.6,-1.8,4.3,-1.9Z" class="g0_1" />
<path fill-rule="evenodd" d="M464.9,136.7l-1.7,.2l-1.7,.4l-1.7,.6l-1.6,.7l-1.6,1l-1.6,1.2l-1.6,1.3l-1.5,1.6c-.1,.2,-.3,.2,-.4,.2c-.1,-.1,-.3,-.2,-.3,-.4v-.4l-.3,-1.6l-.4,-1.4l-.6,-1l-.6,-.9l-.9,-.7l-.9,-.4l-1.2,-.3H445l-1.2,.2l-1,.3l-1,.5l-.8,.7l-.7,.9l-.5,.9l-.2,1.1l-.1,1.1l.1,.7l.1,.9l.1,1.1l.1,1.2l.1,1.3l.1,1.1l.1,.9l.1,.8v2.3l.1,1.4v4.7l-.1,1.7v1.9l-.1,1.9v9l.1,1.1v.7l.1,.8l.1,1.1l.2,1.2l.2,1.1l.1,1.1l.1,.8l.1,.7l.2,1.2l.3,1l.6,.9l.7,.8l.9,.7l1,.4l1.1,.3h1.2l1.2,-.2l1,-.3l1,-.6l.8,-.7l.7,-.9l.4,-.9l.3,-1.1v-3.8l.1,-1.2l.1,-1.2v-2.6l-.1,-2l.1,-2.1l.1,-1.1l.1,-1.1v-1.7q0,-.1,0,-.1l.5,-1.9l.4,-1.8l.6,-1.7l.6,-1.6l.7,-1.6l.7,-1.4l.8,-1.4l.8,-1.4l.9,-1.2l.9,-1l.9,-.9l.9,-.8l1,-.6l.9,-.4c0,0,0,-.1,0,-.1l.9,-.2q.1,0,.1,0l.9,-.2q.1,0,.1,0l.4,.1q.1,0,.2,0l.3,.2q.1,0,.1,0l.4,.3v.1l.3,.3q0,.1,0,.1l.3,.6l.1,.6l.2,.8v.9l.1,.9v1.7l-.1,.5v.3l.1,.2V163l.2,2.1l.2,2.2l.4,2.3l.4,2.4l1.7,9.1l.3,1.2l.4,1l.5,.8l.7,.6l.8,.5l.9,.4l1,.1l1.3,.1l1.2,-.2l1,-.3l1,-.6l.8,-.7l.7,-.8l.5,-1l.2,-1v-1.1l-.1,-1.8l-.3,-2l-.4,-2.3l-.5,-2.6l-.6,-2.6l-.4,-2.3l-.3,-2.1l-.2,-1.8v-2l-.1,-.9l-.1,-3.1l-.2,-2.3l-.2,-2.1l-.3,-1.9l-.3,-1.8l-.4,-1.6l-.4,-1.5l-.5,-1.3l-.5,-1.2l-1,-1.6l-1,-1.3l-1.2,-1.1l-1.4,-.9l-1.5,-.6l-1.6,-.5l-1.8,-.2Zm2,-.8l1.9,.2l1.7,.5q.1,0,.1,0l1.5,.7q.1,0,.1,0l1.4,.9c0,0,.1,.1,.1,.1l1.2,1.1l1.2,1.4v.1l1,1.6l.5,1.2l.6,1.4l.4,1.6l.4,1.6l.3,1.9l.3,1.9l.2,2.1l.2,2.3l.1,3.1l.1,1v1.9l.2,1.8l.3,2.1l.4,2.3l.5,2.6l.6,2.5l.4,2.3l.3,2.1l.1,1.9v1.2c0,0,0,.1,0,.1l-.3,1.1v.1l-.5,1h-.1l-.7,1l-.9,.8q-.1,0,-.1,0l-1,.6c0,0,-.1,0,-.1,0l-1.1,.4c0,0,-.1,0,-.1,0l-1.2,.2q-.1,0,-.1,0l-1.3,-.1l-1.2,-.2l-1.1,-.3q0,-.1,0,-.1l-.9,-.5v-.1l-.8,-.7v-.1l-.6,-.8q0,-.1,0,-.1l-.5,-1.1l-.3,-1.3l-1.7,-9.1l-.4,-2.3l-.3,-2.4l-.3,-2.2l-.1,-2.2l-.1,-.7v-7.2l-.1,-.2v-.3l.1,-.5v-1.7l-.1,-.9v-.8L467,150l-.2,-.6l-.2,-.4l-.2,-.3l-.2,-.2l-.3,-.2h-.3l-.9,.1l-.8,.3l-.9,.4l-.9,.6l-.8,.7l-.9,.8l-.8,1l-.8,1.2l-.8,1.3l-.8,1.3l-.7,1.5l-.6,1.5l-.7,1.6l-.5,1.7l-.5,1.7l-.4,1.8v1.7l-.1,1.1l-.1,1.2l-.1,2l.1,1.9v2.7l-.1,1.2l-.1,1.2v4l-.3,1.1l-.1,.1l-.4,1q-.1,0,-.1,.1l-.7,.9c0,0,0,.1,-.1,.1l-.8,.8q-.1,0,-.1,0l-1,.6c0,0,-.1,0,-.1,0l-1.1,.4c0,0,-.1,0,-.1,0l-1.3,.2h-1.4l-1.1,-.3q-.1,0,-.1,0l-1.1,-.5v-.1l-1,-.6q0,-.1,-.1,-.1l-.8,-.8q0,-.1,0,-.1l-.6,-1v-.1l-.4,-1.1l-.2,-1.3v-.7l-.1,-.8l-.2,-1.1l-.1,-1.1l-.2,-1.2l-.2,-1l-.1,-.9v-.7l-.1,-1.2v-9l.1,-1.9v-1.9l.1,-1.7v-4.7l-.1,-1.3v-2.4l-.1,-.7l-.1,-.9l-.1,-1.1l-.1,-1.3l-.1,-1.2l-.1,-1.1l-.1,-.9l-.1,-.8l.1,-1.2c0,0,0,-.1,0,-.1l.3,-1.1c0,0,0,-.1,0,-.1l.5,-1l.1,-.1l.7,-.9h.1l.9,-.8v-.1l1,-.5q.1,0,.1,0l1.2,-.4L445,136h1.5l1.2,.3h.1l1,.5c0,0,.1,.1,.1,.1l.9,.7l.1,.1l.7,.9v.1l.6,1.1c0,0,0,.1,0,.1l.5,1.4l.2,1.3l1,-1l1.6,-1.4l1.6,-1.2l1.7,-1.1l1.7,-.8l1.7,-.6l1.8,-.4l1.8,-.2Z" class="g0_1" />
<path fill-rule="evenodd" d="M441.8,133.2c3.8,-.3,6,1.9,6.5,6.6l.1,.4c4,-4.5,8.5,-6.9,13.2,-7.1c5.6,-.3,9.5,1.8,11.9,6.3c1.5,3.1,2.5,7.7,2.8,13.9l.2,3.1c0,1.4,.1,2.3,.1,2.9c.1,2.3,.6,5.2,1.4,8.8c.8,3.6,1.3,6.5,1.4,8.8c.1,1.6,-.4,3,-1.6,4.2c-1.1,1.1,-2.5,1.7,-4.2,1.8c-3.6,.2,-5.7,-1.5,-6.3,-5c-.6,-3,-1.2,-6,-1.8,-9.1c-.6,-3.2,-.9,-6.2,-1.1,-9.1c0,-.7,0,-2,0,-3.9c0,-1.8,0,-3.2,-.1,-3.9c0,-.2,0,-.8,0,-1.6c0,-.8,0,-1.5,0,-2c-.1,-2.5,-.8,-3.7,-1.9,-3.6c-2.6,.1,-5,1.9,-7.2,5.2c-2.3,3.4,-3.9,7.6,-5.1,12.6c0,1,0,2.3,-.1,4c-.1,1.4,-.1,2.7,-.1,4c.1,.9,.1,2.1,0,3.8c-.2,1.7,-.2,3,-.1,3.9c.1,1.7,-.5,3.1,-1.6,4.3c-1.1,1.2,-2.5,1.9,-4.3,1.9c-1.7,.1,-3.2,-.3,-4.4,-1.4c-1.2,-1.1,-1.9,-2.4,-1.9,-4.2c-.1,-.8,-.2,-2.1,-.5,-3.7c-.3,-1.7,-.4,-3,-.5,-3.8c-.1,-2.9,-.1,-6.9,0,-12c.2,-5.2,.2,-9.2,0,-12.1c0,-.9,-.1,-2.2,-.3,-4c-.2,-1.7,-.4,-3.1,-.4,-3.9c-.1,-1.7,.4,-3.1,1.6,-4.3c1.1,-1.1,2.5,-1.8,4.3,-1.8Z" class="g1_1" />
<path d="M441.8,133.2c3.8,-.3,6,1.9,6.5,6.6l.1,.4c4,-4.5,8.5,-6.9,13.2,-7.1c5.6,-.3,9.5,1.8,11.9,6.3c1.5,3.1,2.5,7.7,2.8,13.9l.2,3.1c0,1.4,.1,2.3,.1,2.9c.1,2.3,.6,5.2,1.4,8.8c.8,3.6,1.3,6.5,1.4,8.8c.1,1.6,-.4,3,-1.6,4.2c-1.1,1.1,-2.5,1.7,-4.2,1.8c-3.6,.2,-5.7,-1.5,-6.3,-5c-.6,-3,-1.2,-6,-1.8,-9.1c-.6,-3.2,-.9,-6.2,-1.1,-9.1c0,-.7,0,-2,0,-3.9c0,-1.8,0,-3.2,-.1,-3.9c0,-.2,0,-.8,0,-1.6c0,-.8,0,-1.5,0,-2c-.1,-2.5,-.8,-3.7,-1.9,-3.6c-2.6,.1,-5,1.9,-7.2,5.2c-2.3,3.4,-3.9,7.6,-5.1,12.6c0,1,0,2.3,-.1,4c-.1,1.4,-.1,2.7,-.1,4c.1,.9,.1,2.1,0,3.8c-.2,1.7,-.2,3,-.1,3.9c.1,1.7,-.5,3.1,-1.6,4.3c-1.1,1.2,-2.5,1.9,-4.3,1.9c-1.7,.1,-3.2,-.3,-4.4,-1.4c-1.2,-1.1,-1.9,-2.4,-1.9,-4.2c-.1,-.8,-.2,-2.1,-.5,-3.7c-.3,-1.7,-.4,-3,-.5,-3.8c-.1,-2.9,-.1,-6.9,0,-12c.2,-5.2,.2,-9.2,0,-12.1c0,-.9,-.1,-2.2,-.3,-4c-.2,-1.7,-.4,-3.1,-.4,-3.9c-.1,-1.7,.4,-3.1,1.6,-4.3c1.1,-1.1,2.5,-1.8,4.3,-1.8Z" class="g2_1" />
<path fill-rule="evenodd" d="M514.2,136.6c2.9,.1,5.1,.5,6.5,1.3c1.9,1.1,2.8,3.1,2.7,5.8c-.2,5.3,-1.7,7.9,-4.5,7.8c-2.9,-.1,-4.6,-1.3,-5.2,-3.8c-1.1,-.2,-2.3,-.4,-3.6,-.4c-7.1,-.3,-10.6,.6,-10.7,2.6c0,1.1,2,2.7,6.2,4.8c5.8,2.8,9.7,5.1,11.7,6.6c4.1,3.3,6.2,6.8,6.1,10.7c-.2,5,-2.7,8.8,-7.5,11.3c-3.8,1.9,-8.5,2.8,-14.1,2.7c-3.9,-.1,-7.4,-.9,-10.6,-2.2c-4.4,-1.8,-6.5,-4.3,-6.4,-7.5c.1,-2.9,1.9,-4.3,5.4,-4.2c1.3,0,3.3,.5,5.8,1.5c2.5,.9,4.5,1.4,5.9,1.4c5.9,.2,9,-.9,9.1,-3.3c0,-1.5,-2,-3.2,-6.1,-5.2c-5.9,-2.9,-9.8,-4.9,-11.4,-6.1c-4.1,-3.1,-6.1,-6.7,-5.9,-10.9c.2,-5.9,3.4,-9.8,9.8,-11.6c3.7,-1.1,9.3,-1.5,16.8,-1.3Z" class="g0_1" />
<path fill-rule="evenodd" d="M508.9,136.9l-2.3,.1l-2.2,.1l-2,.2l-1.8,.3l-1.7,.3l-1.4,.3l-1.2,.4l-1,.4l-1,.5l-.9,.5l-.8,.5l-.8,.6l-.7,.6l-.6,.7l-.6,.7l-.5,.8l-.4,.8l-.3,.9l-.3,.9l-.2,1l-.2,1V151l.2,1.4l.5,1.4l.6,1.4l.8,1.3l1,1.2l1.2,1.2l1.4,1.1l.7,.5l.9,.6l1.2,.6l1.3,.8l1.5,.8l1.7,.9l2,.9l2.1,1.1l1.5,.7l1.2,.7l1.1,.7l.9,.7l.7,.6v.1l.5,.6l.3,.6q0,.1,0,.2l.1,.5q0,.1,0,.2l-.2,.8q0,.1,0,.1l-.5,.8c0,0,-.1,0,-.1,.1l-.7,.6c0,0,-.1,0,-.1,0l-1,.5l-1.4,.4l-1.6,.2l-1.8,.1h-2.2l-1.1,-.1l-1.4,-.3l-1.6,-.5l-1.8,-.6l-1.8,-.6l-1.5,-.4l-1.3,-.3l-1.1,-.1H489l-1,.2l-.9,.3l-.6,.4l-.6,.5l-.4,.7l-.2,.8l-.1,1l.1,1.1l.2,1l.5,1l.6,.9l.9,.8l1,.8l1.3,.8l1.5,.7l2.4,.8l2.6,.7l2.7,.4l2.9,.2h2l1.9,-.1l1.9,-.2l1.7,-.2l1.7,-.4l1.7,-.5l1.5,-.6l1.4,-.7l1.7,-.9l1.4,-1.1l1.2,-1.2l1,-1.3l.8,-1.4l.6,-1.6l.4,-1.6L523,172l-.1,-1.4l-.2,-1.4l-.5,-1.3l-.6,-1.3l-.8,-1.2l-1.1,-1.3l-1.2,-1.2L517,161.7l-.8,-.7l-1,-.6l-1.2,-.7l-1.3,-.9l-1.6,-.8l-1.7,-.9l-1.9,-1l-2,-1l-1.5,-.8l-1.3,-.7l-1.1,-.7l-.9,-.7l-.7,-.6l-.5,-.5c0,0,-.1,-.1,-.1,-.1l-.2,-.5c-.1,0,-.1,-.1,-.1,-.1l-.1,-.5c0,0,0,-.1,0,-.1l.1,-.4l.1,-.4h.1l.2,-.3q0,-.1,0,-.1l.3,-.3q.1,0,.1,0l.4,-.3l.5,-.2l.6,-.3l.7,-.1l.7,-.2l.8,-.1l.9,-.1l.9,-.1h1.1l1.1,-.1h1.3l1.3,.1l1.8,.1l1.8,.3c.2,0,.3,.1,.3,.3l.3,.8l.3,.7l.4,.6l.5,.5l.7,.4l.7,.3l.9,.2h1.9l.8,-.4l.6,-.5l.6,-.8l.5,-1l.3,-1.3l.3,-1.5l.1,-1.9v-.9l-.1,-.9l-.2,-.8l-.3,-.7l-.3,-.7l-.5,-.5l-.5,-.5l-.6,-.4L520,138l-.6,-.2l-.7,-.2l-.8,-.2l-.8,-.2l-.9,-.1l-1,-.1h-1l-2.7,-.1Zm2.6,-.8l2.7,.1h1.1l1,.1l.9,.1l.9,.2l.8,.2l.7,.2l.7,.3l.6,.3l.7,.5l.6,.5c0,0,0,.1,0,.1l.5,.6l.4,.7l.1,.1l.2,.7l.3,.9l.1,1v1l-.1,1.9l-.3,1.6l-.4,1.5l-.5,1.1c0,0,0,.1,0,.1l-.7,.8q0,.1,0,.1l-.8,.6c0,0,-.1,0,-.1,.1l-.9,.3h-.1l-1,.1h-.1l-1,-.1l-1,-.2l-.8,-.3q-.1,0,-.1,0l-.7,-.4q0,-.1,-.1,-.1l-.5,-.5c-.1,0,-.1,-.1,-.1,-.1l-.5,-.6c0,0,0,-.1,0,-.1l-.4,-.8l-.2,-.6l-1.5,-.3l-1.8,-.1l-1.3,-.1h-1.2l-1.1,.1h-1l-1,.1l-.8,.1l-.8,.1l-.7,.1l-.6,.2l-.5,.2l-.4,.2l-.4,.2l-.2,.2l-.2,.3v.2l-.1,.3l.1,.3l.2,.4l.5,.5l.6,.5l.8,.6l1.1,.7l1.3,.7l1.4,.7l2.1,1.1l1.9,1l1.7,.9l1.6,.9l1.3,.8l1.2,.7l1.1,.7l.8,.6l1.5,1.3l1.3,1.2l1.1,1.3l.9,1.4l.6,1.4l.5,1.4c0,0,0,.1,0,.1l.3,1.4l.1,1.5l-.2,1.9l-.4,1.7c0,0,0,.1,0,.1l-.6,1.6l-.9,1.5v.1l-1,1.3l-1.3,1.3l-1.5,1.1l-1.8,1l-1.5,.7l-1.6,.6l-1.7,.5l-1.7,.4l-1.8,.3l-1.9,.2l-2,.1h-2.1l-2.9,-.2l-2.7,-.5l-2.7,-.6l-2.5,-.9l-1.5,-.7l-1.4,-.8l-1.1,-.9l-1,-.9v-.1l-.7,-.9c0,0,0,-.1,0,-.1l-.5,-1c0,0,-.1,-.1,-.1,-.1l-.2,-1.1v-.1l-.1,-1.1q0,-.1,0,-.1l.1,-1q0,-.1,0,-.1l.3,-.9c0,0,0,-.1,0,-.1l.5,-.7q0,-.1,0,-.1l.6,-.6c.1,0,.1,-.1,.1,-.1l.8,-.4v-.1l.9,-.3q.1,0,.1,0l1.1,-.2h1.3l1.1,.1l1.4,.3l1.6,.5l1.8,.6l1.8,.6l1.6,.4l1.3,.3l1.1,.1H504l1.8,-.1l1.5,-.2l1.2,-.3l.9,-.5l.7,-.5l.3,-.6l.2,-.7l-.1,-.5l-.2,-.5l-.4,-.5l-.7,-.6l-.8,-.7l-1,-.6l-1.2,-.7l-1.5,-.7l-2.1,-1.1l-1.9,-.9l-1.8,-.9l-1.5,-.8l-1.3,-.8l-1.2,-.6l-.9,-.6l-.8,-.5l-1.4,-1.2l-1.3,-1.2l-1,-1.4l-.9,-1.3l-.6,-1.4l-.5,-1.5l-.3,-1.6v-1.6l.1,-1.1l.1,-1l.2,-1.1l.3,-.9l.4,-1l.4,-.9l.6,-.8l.6,-.8l.6,-.7l.8,-.7l.8,-.6l.9,-.6l.9,-.5l1.1,-.5l1.1,-.4l1.1,-.4l1.5,-.4l1.7,-.3l1.9,-.3l2,-.2l2.2,-.1l2.4,-.1Z" class="g0_1" />
<path fill-rule="evenodd" d="M510.9,133.3c3,.1,5.1,.6,6.5,1.4c1.9,1.1,2.9,3,2.8,5.8c-.2,5.3,-1.7,7.9,-4.6,7.8c-2.9,-.1,-4.6,-1.4,-5.1,-3.8c-1.2,-.3,-2.4,-.4,-3.6,-.5c-7.1,-.2,-10.7,.7,-10.7,2.6c-.1,1.2,2,2.8,6.2,4.8c5.8,2.9,9.6,5.1,11.6,6.7c4.2,3.2,6.2,6.8,6.1,10.6c-.2,5.1,-2.6,8.9,-7.4,11.3c-3.9,2,-8.6,2.9,-14.1,2.7c-3.9,-.1,-7.5,-.8,-10.7,-2.1c-4.3,-1.8,-6.5,-4.3,-6.4,-7.5c.1,-3,1.9,-4.4,5.4,-4.3c1.4,.1,3.3,.6,5.9,1.5c2.5,.9,4.4,1.4,5.8,1.5c6,.2,9.1,-.9,9.2,-3.4c0,-1.5,-2,-3.2,-6.1,-5.1c-6,-2.9,-9.8,-5,-11.5,-6.2c-4,-3,-6,-6.6,-5.9,-10.8c.2,-5.9,3.5,-9.8,9.8,-11.7c3.7,-1.1,9.3,-1.5,16.8,-1.3Z" class="g1_1" />
<path d="M510.9,133.3c3,.1,5.1,.6,6.5,1.4c1.9,1.1,2.9,3,2.8,5.8c-.2,5.3,-1.7,7.9,-4.6,7.8c-2.9,-.1,-4.6,-1.4,-5.1,-3.8c-1.2,-.3,-2.4,-.4,-3.6,-.5c-7.1,-.2,-10.7,.7,-10.7,2.6c-.1,1.2,2,2.8,6.2,4.8c5.8,2.9,9.6,5.1,11.6,6.7c4.2,3.2,6.2,6.8,6.1,10.6c-.2,5.1,-2.6,8.9,-7.4,11.3c-3.9,2,-8.6,2.9,-14.1,2.7c-3.9,-.1,-7.5,-.8,-10.7,-2.1c-4.3,-1.8,-6.5,-4.3,-6.4,-7.5c.1,-3,1.9,-4.4,5.4,-4.3c1.4,.1,3.3,.6,5.9,1.5c2.5,.9,4.4,1.4,5.8,1.5c6,.2,9.1,-.9,9.2,-3.4c0,-1.5,-2,-3.2,-6.1,-5.1c-6,-2.9,-9.8,-5,-11.5,-6.2c-4,-3,-6,-6.6,-5.9,-10.8c.2,-5.9,3.5,-9.8,9.8,-11.7c3.7,-1.1,9.3,-1.5,16.8,-1.3Z" class="g2_1" />
<path fill-rule="evenodd" d="M554.6,151.2c-4.3,-.5,-7.7,.4,-10.2,2.6c-2.5,2.2,-4,5.8,-4.6,10.8c-.4,3.2,.4,6,2.5,8.5c2,2.6,4.6,4,7.7,4.4c2.3,.3,4,.3,5.2,-.1c.9,-.3,2.3,-1,4.4,-2.3c.6,-.4,1.1,-.8,1.6,-1.2c.1,-1.4,.8,-6.7,2,-16c-.7,-2,-1.8,-3.5,-3.2,-4.6c-1.5,-1.1,-3.2,-1.8,-5.4,-2.1Zm21.5,-31.9c1.7,.2,3,.9,3.9,2.2c.9,1.2,1.3,2.6,1.1,4.3c-.5,4.2,-1.7,10.6,-3.4,19c-1.7,8.3,-2.8,14.7,-3.3,18.9c-1.3,10.5,-1.9,17.5,-1.6,21.1c0,.5,0,.9,-.1,1.3c-.2,1.7,-.9,2.9,-2.2,3.8c-1.3,.9,-2.7,1.3,-4.3,1.1c-2.1,-.3,-3.6,-1.4,-4.4,-3.5c-2.2,1,-4.3,1.5,-6.5,1.6c-2.2,.1,-4.4,0,-6.7,-.3c-6.5,-.8,-11.7,-3.6,-15.5,-8.3c-3.9,-4.8,-5.4,-10.5,-4.6,-17.1c1,-7.9,4,-13.9,9,-18.2c5.1,-4.3,11.2,-6,18.3,-5.1c2.2,.3,4.1,.7,5.8,1.4c1.7,.7,3.1,1.6,4.2,2.7c1.6,-9.9,2.9,-16.8,3.9,-20.5c1,-3.4,3.1,-4.9,6.4,-4.4Z" class="g0_1" />
<path fill-rule="evenodd" d="M551.5,151.5l-1.3,.1l-1.3,.3l-1.2,.3l-1.1,.5l-1,.7l-.9,.7l-.9,.9l-.7,1l-.7,1.1l-.6,1.2l-.6,1.4l-.4,1.5l-.3,1.7l-.3,1.8l-.1,1.1v1.1l.2,1.1l.2,1l.4,1l.4,1l.6,1l.7,.9l.8,.9l.8,.8l.9,.7l.9,.5l.9,.5l1,.4l1.1,.3l1.1,.2l1.5,.1H553l1.2,-.1l.9,-.2l.7,-.3l1,-.4l1.2,-.7l1.4,-.9l1.4,-1l.1,-.1v-.4l.1,-.5v-.6l.1,-.7l.1,-.8l.1,-.8l.1,-1l.2,-1.1l.1,-1.1l.2,-1.2l.1,-1.3l.2,-1.5l.2,-1.5l.2,-1.6l.2,-1.6l-.5,-1.3l-.8,-1.1l-.8,-1l-1,-.9l-1.1,-.7l-1.2,-.6l-1.4,-.4l-1.4,-.3l-1.6,-.1Zm0,-.8h1.6l1.6,.2l1.6,.2l1.4,.5l1.3,.6l1.2,.8l1,.9q.1,0,.1,0l.9,1.2l.8,1.2l.6,1.4c0,.1,0,.2,0,.2l-.2,1.7l-.2,1.6l-.2,1.5l-.2,1.5l-.1,1.3l-.2,1.2l-.2,1.1l-.1,1.1l-.1,1l-.1,.8l-.1,.8l-.1,.7l-.1,.6v.8l-.1,.4c0,.1,0,.2,-.1,.2l-1.7,1.2l-1.4,.9l-1.3,.7l-1,.5l-.7,.3c0,0,-.1,0,-.1,0l-1.1,.2l-1.2,.1h-1.4l-1.6,-.2l-1.2,-.2l-1.1,-.3l-1.1,-.4l-1.1,-.5l-.9,-.6l-1,-.8l-.8,-.8l-.8,-.9l-.8,-1l-.6,-1l-.5,-1.1l-.4,-1.1l-.2,-1.1l-.2,-1.2v-1.1l.1,-1.2l.3,-1.9l.4,-1.7l.4,-1.6l.6,-1.4l.6,-1.3l.7,-1.2l.9,-1.1l.9,-.9l1,-.8l1.1,-.7l1.2,-.5l1.2,-.4l1.4,-.3Zm23.4,-31.1l-1,.1l-.9,.3l-.8,.4l-.6,.6l-.6,.7l-.5,1l-.4,1.1l-.2,.7l-.2,.9l-.2,.8l-.2,1l-.2,1l-.2,1.1l-.3,1.2l-.2,1.2l-.2,1.3l-.3,1.4l-.3,1.5l-.2,1.5l-.3,1.6l-.3,1.7l-.3,1.7l-.3,1.9c0,.1,-.1,.2,-.2,.3c-.2,0,-.3,0,-.4,-.1l-.9,-.8l-1,-.6l-1.1,-.7l-1.1,-.5l-1.3,-.5l-1.4,-.4l-1.4,-.3l-1.6,-.2l-2.6,-.2h-2.5l-2.4,.3l-2.3,.5l-2.2,.7l-2.1,1l-2,1.2l-1.9,1.5l-1.7,1.6l-1.6,1.9l-1.4,1.9l-1.2,2.2l-1,2.3l-.9,2.5l-.6,2.7l-.5,2.8l-.2,2.4v2.3l.3,2.3l.4,2.1l.7,2.1l.9,1.9l1.1,1.9l1.3,1.8l1.5,1.7l1.5,1.5l1.8,1.2l1.8,1.2l2,.9l2.1,.7l2.2,.6l2.4,.4l1.6,.2l1.7,.1h3.3l1.6,-.2l1.5,-.3l1.6,-.4l1.6,-.7c.2,0,.4,.1,.5,.2l.3,.7l.4,.6l.4,.5l.5,.5l.6,.4l.6,.2l.6,.3l.7,.1h1.1l1.1,-.1l.9,-.4l1,-.5l.8,-.7l.6,-.8l.4,-.9l.3,-1.1v-2l-.1,-.8v-.9l.1,-.9v-2.2l.1,-1.2l.1,-1.3l.1,-1.3l.1,-1.5l.2,-1.5l.1,-1.6l.2,-1.7l.2,-1.7l.2,-1.9l.3,-1.9l.2,-1.7l.3,-1.9l.3,-2.1l.4,-2.3l.5,-2.4l.5,-2.7l.5,-2.9l.6,-3l.7,-3.1l.5,-2.8l.5,-2.7l.5,-2.4l.4,-2.3l.3,-2.1l.3,-1.9l.2,-1.6v-1.2l-.1,-1l-.4,-1l-.5,-.9l-.7,-.8l-.8,-.6l-1,-.4l-1.2,-.2Zm0,-.8l1.2,.1h.1l1.2,.2c0,0,0,.1,.1,.1l1,.4q.1,0,.1,0l.9,.7l.1,.1l.7,.8c0,0,.1,0,.1,.1l.6,.9q0,.1,0,.1l.3,1.1q.1,0,.1,0l.1,1.1q0,.1,0,.1v1.2l-.2,1.7l-.3,1.9l-.4,2.1l-.4,2.3l-.4,2.5l-.5,2.6l-.6,2.9l-.6,3l-.6,3.1l-.5,2.8l-.5,2.7l-.5,2.5l-.4,2.2l-.3,2.1l-.3,1.9l-.2,1.7l-.3,1.9l-.2,1.9l-.2,1.7l-.2,1.7l-.1,1.6l-.2,1.5l-.1,1.4l-.1,1.4l-.1,1.3l-.1,1.2v1.1l-.1,1v2.6l.1,.7v.7l-.1,.7l-.2,1.2v.1l-.5,1l-.7,.9c0,0,-.1,.1,-.1,.1l-.8,.7q-.1,.1,-.1,.1l-1,.5q0,.1,-.1,.1l-1,.3c0,0,-.1,.1,-.1,.1l-1.1,.1h-1.2l-.8,-.2l-.8,-.2l-.7,-.3v-.1l-.6,-.3c0,-.1,-.1,-.1,-.1,-.1l-.5,-.5l-.5,-.6l-.4,-.6l-.2,-.5l-1.3,.5l-1.6,.5l-1.7,.3l-1.7,.2H552l-1.7,-.1l-1.7,-.2l-2.4,-.4l-2.3,-.6l-2.2,-.8l-2,-.9l-2,-1.2L536,184l-1.7,-1.5l-1.5,-1.7l-1.4,-1.9l-1.1,-2l-.9,-2l-.7,-2.2l-.5,-2.2l-.2,-2.3l-.1,-2.4l.2,-2.4l.5,-2.9l.6,-2.8l.9,-2.5l1,-2.4l1.3,-2.2l1.4,-2.1l1.6,-1.9l1.9,-1.7l1.9,-1.5l2.1,-1.3l2.2,-1l2.3,-.8l2.3,-.5l2.5,-.3h2.6l2.7,.2l1.6,.2l1.5,.4l1.4,.4l1.3,.5l1.3,.5l1.1,.7l1,.7l.4,.3l.2,-1.1l.3,-1.7l.3,-1.7l.3,-1.6l.3,-1.6l.2,-1.4l.3,-1.4l.2,-1.3l.3,-1.3l.2,-1.2l.2,-1.1l.2,-1l.3,-.9l.2,-.9l.2,-.8l.2,-.8l.4,-1.2l.5,-1q0,-.1,0,-.1l.7,-.8q0,-.1,0,-.1l.8,-.6q0,-.1,0,-.1l.9,-.4q0,-.1,0,-.1l1,-.3c0,0,.1,0,.1,0l1.1,-.1Z" class="g0_1" />
<path fill-rule="evenodd" d="M551.4,148c-4.3,-.5,-7.7,.3,-10.2,2.5c-2.5,2.3,-4,5.9,-4.7,10.9c-.3,3.1,.5,6,2.5,8.5c2.1,2.6,4.7,4,7.8,4.4c2.2,.3,4,.2,5.2,-.1c.8,-.3,2.3,-1.1,4.4,-2.4c.5,-.3,1.1,-.7,1.6,-1.1c.1,-1.4,.8,-6.8,2,-16.1c-.8,-1.9,-1.8,-3.5,-3.3,-4.6c-1.4,-1.1,-3.2,-1.7,-5.3,-2Zm21.4,-32c1.8,.2,3.1,1,4,2.2c.9,1.3,1.2,2.7,1.1,4.3c-.6,4.3,-1.7,10.6,-3.4,19c-1.7,8.4,-2.8,14.7,-3.4,19c-1.3,10.4,-1.8,17.5,-1.6,21.1c.1,.5,0,.9,0,1.3c-.2,1.6,-1,2.9,-2.3,3.8c-1.2,.9,-2.7,1.2,-4.2,1c-2.2,-.2,-3.7,-1.4,-4.5,-3.5c-2.1,1,-4.3,1.5,-6.5,1.6c-2.1,.1,-4.4,0,-6.6,-.3c-6.6,-.8,-11.7,-3.5,-15.6,-8.2c-3.8,-4.8,-5.4,-10.6,-4.5,-17.2c.9,-7.8,4,-13.9,9,-18.2c5,-4.2,11.1,-5.9,18.3,-5c2.2,.2,4.1,.7,5.8,1.4c1.6,.7,3,1.6,4.2,2.6c1.6,-9.9,2.9,-16.7,3.9,-20.4c.9,-3.4,3,-4.9,6.3,-4.5Z" class="g1_1" />
<path d="M551.4,148c-4.3,-.5,-7.7,.3,-10.2,2.5c-2.5,2.3,-4,5.9,-4.7,10.9c-.3,3.1,.5,6,2.5,8.5c2.1,2.6,4.7,4,7.8,4.4c2.2,.3,4,.2,5.2,-.1c.8,-.3,2.3,-1.1,4.4,-2.4c.5,-.3,1.1,-.7,1.6,-1.1c.1,-1.4,.8,-6.8,2,-16.1c-.8,-1.9,-1.8,-3.5,-3.3,-4.6c-1.4,-1.1,-3.2,-1.7,-5.3,-2Zm21.4,-32c1.8,.2,3.1,1,4,2.2c.9,1.3,1.2,2.7,1.1,4.3c-.6,4.3,-1.7,10.6,-3.4,19c-1.7,8.4,-2.8,14.7,-3.4,19c-1.3,10.4,-1.8,17.5,-1.6,21.1c.1,.5,0,.9,0,1.3c-.2,1.6,-1,2.9,-2.3,3.8c-1.2,.9,-2.7,1.2,-4.2,1c-2.2,-.2,-3.7,-1.4,-4.5,-3.5c-2.1,1,-4.3,1.5,-6.5,1.6c-2.1,.1,-4.4,0,-6.6,-.3c-6.6,-.8,-11.7,-3.5,-15.6,-8.2c-3.8,-4.8,-5.4,-10.6,-4.5,-17.2c.9,-7.8,4,-13.9,9,-18.2c5,-4.2,11.1,-5.9,18.3,-5c2.2,.2,4.1,.7,5.8,1.4c1.6,.7,3,1.6,4.2,2.6c1.6,-9.9,2.9,-16.7,3.9,-20.4c.9,-3.4,3,-4.9,6.3,-4.5Z" class="g2_1" />
<path fill-rule="evenodd" d="M610.7,162c-3.9,-.9,-7.7,-.2,-11.4,2.1c-3.6,2.4,-5.9,5.6,-6.9,9.6c-.9,3.8,-.9,6.9,0,9.1c1,2.3,2.8,3.7,5.5,4.4c1.8,.4,3.6,.5,5.3,.3c1.7,-.2,3.4,-.7,5.1,-1.5c.8,-7,1.5,-12.2,2.4,-15.6c.2,-.9,.5,-2,.9,-3.1c.4,-1.2,.9,-2.5,1.5,-3.9c-.5,-.4,-1,-.7,-1.4,-1c-.4,-.2,-.7,-.3,-1,-.4Zm1.8,-10.4c2.8,.6,5.7,2.2,8.9,4.5c3.9,2.9,5.6,5.6,5,8c-.3,1,-.8,1.8,-1.6,2.4c-.6,1.1,-1.1,2.5,-1.7,4.2c-.6,1.6,-1.1,3.6,-1.7,5.9c-1.3,5.4,-1.8,9.4,-1.6,12c0,.3,.3,1.9,.9,4.9c.6,2.7,.8,4.2,.7,4.5c-.3,1.5,-1.2,2.7,-2.6,3.4c-1.4,.7,-2.9,.9,-4.4,.5c-1.3,-.3,-3.1,-2.1,-5.4,-5.3c-2.9,.6,-5.4,1,-7.6,1.2c-2.1,.2,-3.9,.1,-5.3,-.3c-6.9,-1.6,-11.7,-4.7,-14.2,-9.2c-2.6,-4.5,-3,-10.4,-1.3,-17.8c1.7,-6.9,5.6,-12.2,11.9,-15.9c6.3,-3.7,12.9,-4.7,20,-3Z" class="g0_1" />
<path fill-rule="evenodd" d="M607.7,162h-1.4l-1.3,.2l-1.4,.4l-1.3,.4l-1.4,.7l-1.4,.8l-1.2,.9l-1.2,1l-1,1l-.9,1.1l-.8,1.2l-.6,1.3l-.5,1.4l-.5,1.4l-.3,1.4l-.2,1.3l-.1,1.2v2.2l.1,1l.2,1l.3,.8l.4,.8l.4,.7l.6,.6l.6,.5l.7,.5l.7,.4l.9,.3l1,.3l1.3,.3l1.2,.1h1.3l1.3,-.1l1.2,-.2l1.3,-.3l1.2,-.4l1,-.5l.3,-2.3l.3,-2.4l.3,-2.2l.3,-2l.3,-1.9l.3,-1.7l.3,-1.5l.3,-1.4l.4,-1.5l.5,-1.6l.7,-1.9l.7,-1.7l-.5,-.4l-.6,-.4l-.5,-.3l-.4,-.1l-1.5,-.3Zm.1,-.8l1.5,.1l1.4,.3c0,0,.1,0,.1,0l.5,.2l.7,.3l.6,.5l.8,.5c.1,.1,.2,.3,.1,.5l-.8,2l-.7,1.8l-.6,1.6l-.4,1.5l-.3,1.3l-.2,1.5l-.3,1.7l-.3,1.9l-.3,2l-.3,2.2l-.3,2.4l-.3,2.5c0,.2,-.1,.3,-.2,.3l-1.3,.6l-1.3,.5l-1.3,.3l-1.4,.2l-1.3,.1h-1.3l-1.4,-.2l-1.4,-.2l-1,-.3l-.9,-.4l-.9,-.5l-.8,-.5l-.6,-.6l-.6,-.7l-.5,-.8l-.4,-.8l-.3,-1l-.3,-1l-.1,-1v-2.4l.1,-1.2l.3,-1.4l.3,-1.4l.4,-1.5l.6,-1.4l.7,-1.4l.8,-1.2l.9,-1.2l1.1,-1.1l1.2,-1.1l1.3,-.9l1.5,-.8l1.4,-.7l1.4,-.5l1.4,-.4l1.5,-.2Zm-3,-10l-2.5,.3l-2.5,.5l-2.4,.7l-2.4,1l-2.3,1.2l-2.2,1.5l-2,1.6l-1.8,1.7l-1.5,1.9l-1.4,2l-1.1,2.2l-1,2.3l-.7,2.5l-.5,2.6l-.4,2.6l-.1,2.4v2.2l.3,2.2l.4,1.9l.7,1.9l.8,1.7l1,1.6l1.3,1.4l1.4,1.4l1.7,1.2l1.8,1l2,1l2.3,.8l2.5,.7l1,.2l1.3,.1h1.4l1.5,-.1l1.7,-.2l1.8,-.2l1.9,-.4l2.2,-.4c.1,0,.3,0,.4,.2l.8,1.1l.8,1l.7,.8l.7,.8l.6,.5l.5,.5l.6,.3l.4,.1l1.1,.2h1l1,-.3l1,-.4l.9,-.6l.7,-.6l.5,-.9l.3,-.9v-.8l-.1,-.5l-.1,-.6l-.1,-.7l-.2,-.9l-.2,-.9l-.2,-1.1l-.1,-.9l-.2,-.8l-.1,-.7l-.1,-.5l-.1,-.5l-.1,-.3v-2.4l.1,-1.3l.2,-1.5l.2,-1.6l.3,-1.7l.4,-1.8l.4,-2l.5,-1.6l.4,-1.6l.4,-1.4l.4,-1.4l.5,-1.2l.4,-1.1l.4,-1l.4,-.8c0,-.1,.1,-.1,.1,-.2l.6,-.4l.4,-.5l.3,-.6l.2,-.7l.1,-.8l-.1,-.9l-.3,-.9l-.5,-.9l-.6,-1l-.9,-1l-1.1,-1l-1.4,-1l-1.2,-.9l-1.1,-.7l-1.2,-.7l-1.1,-.6l-1.1,-.5l-1,-.5l-1,-.3l-1,-.3l-2.6,-.5l-2.6,-.3Zm2.5,-.8l2.6,.3l2.7,.5l1.1,.3l1,.4l1.1,.4l1.2,.6l1.1,.6l1.2,.7l1.2,.8l1.2,.8l1.3,1.1l1.2,1.1l1,1l.7,1.1l.6,1l.3,1c0,0,0,.1,0,.1l.1,.9q0,.1,0,.1l-.1,.9q0,.1,0,.1l-.3,.8l-.3,.7q-.1,0,-.1,0l-.4,.6q-.1,0,-.1,.1l-.5,.4l-.4,.8l-.4,.9l-.4,1.1l-.4,1.2l-.5,1.3l-.4,1.4l-.4,1.6l-.4,1.6l-.4,2l-.4,1.8l-.3,1.7l-.3,1.5l-.1,1.5l-.1,1.2v2.3l.1,.3l.1,.4l.1,.5l.1,.7l.1,.8l.2,.9l.2,1.1l.2,1l.2,.8l.1,.8l.1,.6l.1,.5v1.1l-.4,1q0,.1,0,.1l-.6,.9c0,0,0,.1,0,.1l-.8,.7q0,.1,0,.1l-1,.6h-.1l-1,.5c0,0,-.1,0,-.1,0l-1.1,.2l-1.1,.1q-.1,0,-.1,0l-1.2,-.2l-.5,-.2q-.1,0,-.1,0l-.6,-.4l-.6,-.4l-.7,-.7l-.7,-.7l-.8,-.9l-.7,-1l-.7,-1l-1.9,.4l-2,.4l-1.8,.2l-1.7,.2l-1.6,.1h-1.4l-1.3,-.1l-1.2,-.3l-2.5,-.6l-2.3,-.9l-2.1,-.9l-1.9,-1.2l-1.8,-1.2l-1.5,-1.4l-1.3,-1.5l-1.1,-1.7l-.9,-1.8l-.6,-1.9l-.5,-2.1l-.3,-2.2v-2.3l.1,-2.5l.4,-2.6l.5,-2.7l.8,-2.5l.9,-2.4l1.2,-2.3l1.4,-2.1l1.6,-1.9l1.8,-1.8l2.1,-1.6l2.3,-1.5l2.4,-1.3l2.4,-1l2.5,-.8l2.5,-.5l2.6,-.3Z" class="g0_1" />
<path fill-rule="evenodd" d="M607.4,158.8c-3.9,-1,-7.7,-.3,-11.3,2.1c-3.6,2.3,-5.9,5.5,-6.9,9.5c-.9,3.9,-.9,6.9,0,9.2c.9,2.2,2.8,3.7,5.5,4.3c1.8,.5,3.5,.6,5.3,.4c1.7,-.2,3.4,-.8,5.1,-1.6c.7,-7,1.5,-12.2,2.3,-15.6c.2,-.9,.5,-1.9,.9,-3.1c.5,-1.1,1,-2.4,1.6,-3.8c-.5,-.4,-1,-.8,-1.4,-1c-.4,-.2,-.8,-.4,-1.1,-.4Zm1.9,-10.5c2.7,.7,5.7,2.2,8.9,4.6c3.9,2.9,5.5,5.5,5,7.9c-.3,1.1,-.8,1.9,-1.7,2.5c-.5,1.1,-1.1,2.4,-1.6,4.1c-.6,1.7,-1.2,3.7,-1.7,6c-1.3,5.4,-1.8,9.4,-1.6,11.9c0,.3,.3,1.9,.9,4.9c.5,2.7,.7,4.3,.7,4.6c-.4,1.5,-1.3,2.6,-2.7,3.3c-1.3,.7,-2.8,.9,-4.3,.6c-1.3,-.3,-3.1,-2.1,-5.4,-5.3c-2.9,.6,-5.5,1,-7.6,1.1c-2.2,.2,-4,.1,-5.4,-.2c-6.9,-1.6,-11.6,-4.7,-14.2,-9.2c-2.6,-4.5,-3,-10.5,-1.2,-17.8c1.6,-6.9,5.6,-12.2,11.8,-15.9c6.3,-3.7,13,-4.7,20.1,-3.1Z" class="g1_1" />
<path d="M607.4,158.8c-3.9,-1,-7.7,-.3,-11.3,2.1c-3.6,2.3,-5.9,5.5,-6.9,9.5c-.9,3.9,-.9,6.9,0,9.2c.9,2.2,2.8,3.7,5.5,4.3c1.8,.5,3.5,.6,5.3,.4c1.7,-.2,3.4,-.8,5.1,-1.6c.7,-7,1.5,-12.2,2.3,-15.6c.2,-.9,.5,-1.9,.9,-3.1c.5,-1.1,1,-2.4,1.6,-3.8c-.5,-.4,-1,-.8,-1.4,-1c-.4,-.2,-.8,-.4,-1.1,-.4Zm1.9,-10.5c2.7,.7,5.7,2.2,8.9,4.6c3.9,2.9,5.5,5.5,5,7.9c-.3,1.1,-.8,1.9,-1.7,2.5c-.5,1.1,-1.1,2.4,-1.6,4.1c-.6,1.7,-1.2,3.7,-1.7,6c-1.3,5.4,-1.8,9.4,-1.6,11.9c0,.3,.3,1.9,.9,4.9c.5,2.7,.7,4.3,.7,4.6c-.4,1.5,-1.3,2.6,-2.7,3.3c-1.3,.7,-2.8,.9,-4.3,.6c-1.3,-.3,-3.1,-2.1,-5.4,-5.3c-2.9,.6,-5.5,1,-7.6,1.1c-2.2,.2,-4,.1,-5.4,-.2c-6.9,-1.6,-11.6,-4.7,-14.2,-9.2c-2.6,-4.5,-3,-10.5,-1.2,-17.8c1.6,-6.9,5.6,-12.2,11.8,-15.9c6.3,-3.7,13,-4.7,20.1,-3.1Z" class="g2_1" />
<path fill-rule="evenodd" d="M658.3,177.4c-4.6,-1.7,-8.8,-1.6,-12.6,.5c-3.3,1.9,-5.8,5.1,-7.5,9.6c-1.2,3.2,-1.5,5.9,-.9,8.1c.6,2.1,2.2,3.6,4.6,4.5c2.3,.9,5.1,.4,8.3,-1.4c3.1,-1.6,5.3,-3.6,6.5,-5.9c1.5,-2.5,3.7,-6.4,6.4,-11.7c-.7,-.9,-1.5,-1.7,-2.3,-2.3c-.8,-.6,-1.6,-1.1,-2.5,-1.4Zm4,-9.3c2.6,1,4.7,2.2,6.3,3.5c1.7,1.3,2.8,2.9,3.5,4.6c3.3,1.7,4.3,4.5,2.9,8.2c-.7,1.8,-1.9,4.3,-3.7,7.3c-3.6,6,-6.9,12.6,-9.8,19.7c-3.6,8.8,-7.5,14.7,-11.7,17.7c-5.6,4.1,-13.1,4.3,-22.2,.9c-10.7,-4,-15.3,-8.2,-13.7,-12.4c.6,-1.5,1.5,-2.6,2.8,-3.1c1.3,-.6,2.8,-.6,4.3,0c1.3,.5,3,1.3,5.1,2.7c2.2,1.3,4.1,2.3,5.9,3c4.1,1.5,7.6,1.4,10.5,-.4c2.8,-1.7,5.4,-5.2,7.7,-10.4c-1.9,.9,-3.9,1.4,-6,1.4c-2,.1,-4.1,-.3,-6.2,-1.1c-5.4,-2,-9.2,-5.5,-11.3,-10.3c-2.1,-4.9,-2.1,-10.1,0,-15.7c2.8,-7.5,7.4,-12.7,13.7,-15.6c6.5,-3,13.8,-3,21.9,0Z" class="g0_1" />
<path fill-rule="evenodd" d="M651.7,176.6l-1.5,.2l-1.5,.3l-1.4,.5l-1.4,.7l-1.1,.8l-1.2,.8l-1,1l-.9,1.1l-.9,1.2l-.8,1.4l-.8,1.4l-.6,1.6l-.4,1.2l-.4,1.1l-.2,1.1l-.1,1l-.1,1v.8l.1,.9l.2,.8l.3,.7l.3,.7l.4,.6l.5,.5l.6,.5l.7,.5l.7,.4l.9,.4l.8,.2l.9,.1h.9l1,-.1l1,-.2l1.1,-.3l1.1,-.5l1.2,-.6l1.1,-.6l1,-.7l.9,-.7l.8,-.7l.7,-.7l.7,-.8l.6,-.8l.4,-.8l.6,-1l.7,-1.1l.7,-1.3l.8,-1.4l.8,-1.5l.9,-1.6l1,-1.8l.9,-1.7l-1,-1.1l-1.1,-1l-1.2,-.7l-1.2,-.6l-1.7,-.6l-1.6,-.3l-1.7,-.2Zm0,-.8l1.6,.1l1.7,.2l1.7,.4l1.8,.6l1.3,.5q0,.1,0,.1l1.3,.8l1.2,1.1l1.1,1.2c.1,.2,.2,.3,.1,.5l-1,1.9l-1,1.8l-.9,1.7l-.8,1.5l-.8,1.4l-.7,1.3l-.7,1.1l-.6,1l-.5,.9l-.6,.8l-.7,.8l-.8,.8l-.8,.8l-1,.7l-1,.7l-1.2,.6l-1.2,.6l-1.2,.5l-1.1,.4l-1.1,.2l-1.1,.1h-1l-1,-.1l-.9,-.3l-.9,-.4l-.9,-.5l-.7,-.5l-.7,-.5l-.5,-.7l-.5,-.7l-.4,-.7l-.3,-.9l-.2,-.8l-.1,-.9v-1l.1,-1l.1,-1.1l.3,-1.1l.3,-1.2l.4,-1.2l.7,-1.6l.8,-1.5l.8,-1.4l1,-1.3l1,-1.2l1,-1l1.2,-.9l1.3,-.8l1.4,-.7l1.6,-.6l1.5,-.3Zm-.9,-9.5h-1.4l-1.3,.1l-1.3,.2l-1.3,.2l-1.3,.3l-1.2,.4l-1.2,.5l-1.2,.5l-2.3,1.2l-2.1,1.3l-1.9,1.7l-1.8,1.8l-1.6,2l-1.4,2.2l-1.3,2.5l-1.1,2.7l-.7,2l-.5,2l-.3,2l-.1,1.9l.1,1.9l.3,1.9l.5,1.8l.7,1.8l.8,1.7l1,1.6l1.2,1.5l1.3,1.3l1.4,1.2l1.7,1.1l1.7,.9l2,.9l1.5,.5l1.5,.3l1.5,.2l1.5,.1l1.5,-.2l1.5,-.2l1.4,-.5l1.5,-.6c.1,0,.3,0,.4,.1c.1,.1,.1,.3,.1,.5l-.9,1.9l-.9,1.7l-1,1.6l-1,1.4l-.9,1.2l-1.1,1.1l-1,.9l-1.1,.8l-1.2,.6l-1.2,.5l-1.3,.3l-1.3,.1l-1.4,-.1l-1.4,-.2l-1.5,-.3l-1.5,-.5l-1.4,-.6l-1.5,-.7l-1.5,-.8l-1.6,-1l-1.5,-.9l-1.3,-.7l-1.2,-.6l-1,-.4l-1.1,-.4l-1,-.1l-1,.1l-.9,.3l-.9,.5l-.7,.7l-.6,.8l-.4,.9l-.2,.8l-.1,.7v.7l.2,.7l.3,.7l.5,.8l.6,.7l.8,.8l.9,.7l1,.8l1.2,.8l1.4,.7l1.5,.8l1.6,.7l1.8,.8l1.9,.7l1.7,.6l1.6,.5l1.6,.5l1.6,.3l1.5,.2l1.5,.2l1.4,.1H640l1.3,-.1l1.3,-.2l1.3,-.3l1.2,-.3l1.2,-.5l1.1,-.5l1.1,-.6l1,-.7l1.6,-1.2l1.5,-1.5l1.5,-1.8l1.4,-2.1l1.5,-2.3l1.4,-2.6l1.4,-2.9l1.4,-3.1l2.2,-5.3l2.4,-5l2.5,-4.9l2.6,-4.6l1.3,-2.1l1,-2l.8,-1.7l.6,-1.4L675,183l.2,-1.2v-1.1l-.2,-1l-.5,-.9l-.6,-.8l-.9,-.8l-1.1,-.7q-.1,0,-.2,-.1l-.5,-1.2l-.8,-1.2l-.9,-1.1l-1.1,-1l-1.3,-.9l-1.5,-.9l-1.6,-.8l-1.8,-.8l-1.5,-.5l-1.5,-.4l-1.4,-.4l-1.5,-.4l-1.4,-.2l-1.4,-.2l-1.4,-.1Zm0,-.8h1.3l1.5,.1l1.4,.2l1.4,.3l1.5,.3l1.5,.4l1.5,.4l1.5,.6l1.9,.7l1.7,.9l1.5,.9l1.4,1l1.1,1.1l1,1.1l.8,1.2l.6,1.2l1,.7q.1,0,.1,0l.9,.8c0,0,.1,0,.1,.1l.7,.8q0,.1,0,.1l.5,1v.1l.3,1q0,.1,0,.1v1.3l-.2,1.2c0,0,0,.1,0,.1l-.4,1.3l-.6,1.5l-.9,1.8l-1,1.9l-1.3,2.2l-2.6,4.6l-2.5,4.9l-2.4,5l-2.2,5.2l-1.4,3.1l-1.4,3l-1.4,2.6l-1.5,2.4l-1.5,2.1l-1.5,1.8l-1.6,1.6l-1.6,1.3l-1.1,.7l-1.1,.6l-1.2,.6l-1.2,.4l-1.3,.4l-1.3,.3l-1.4,.2l-1.4,.1h-1.4l-1.5,-.1l-1.5,-.2l-1.5,-.2l-1.6,-.4l-1.7,-.4l-1.6,-.5l-1.8,-.6l-1.9,-.8l-1.8,-.7l-1.7,-.8l-1.5,-.8l-1.4,-.8l-1.2,-.7l-1.1,-.8l-.9,-.8l-.8,-.8l-.7,-.8l-.5,-.8l-.4,-.9l-.3,-.8q0,-.1,0,-.1v-.9l.1,-.8l.2,-.8c0,0,0,-.1,0,-.1l.5,-1c0,0,.1,-.1,.1,-.1l.6,-.8q0,-.1,.1,-.1l.7,-.7q.1,0,.1,0l.9,-.6q.1,0,.1,0l1,-.3c0,0,.1,0,.1,0l1.1,-.2l1.1,.2q.1,0,.1,0l1.2,.3l1,.5l1.2,.6l1.4,.7l1.5,1l1.6,.9l1.5,.8l1.4,.7l1.3,.5l1.5,.5l1.5,.4l1.3,.2h1.3l1.3,-.1l1.1,-.3l1.2,-.4l1,-.6l1,-.7l1,-.9l1,-1l.9,-1.2l1,-1.4l.9,-1.5l.9,-1.7l.4,-1l-.5,.3l-1.5,.4l-1.6,.3l-1.5,.1h-1.6l-1.6,-.2l-1.6,-.3l-1.6,-.6l-2,-.8l-1.8,-1l-1.7,-1.1l-1.5,-1.3l-1.4,-1.4L628.3,203l-1.1,-1.7l-.9,-1.8l-.7,-1.8l-.5,-1.9l-.3,-2l-.1,-1.9l.1,-2.1l.3,-2l.5,-2.1l.7,-2.1l1.2,-2.7l1.3,-2.5l1.5,-2.3l1.6,-2.1l1.8,-1.9l2,-1.7l2.2,-1.4l2.3,-1.2l1.3,-.6l1.2,-.4l1.3,-.4l1.3,-.3l1.4,-.3l1.3,-.2l1.4,-.1Z" class="g0_1" />
<path fill-rule="evenodd" d="M655.1,174.2c-4.7,-1.8,-8.8,-1.6,-12.6,.5c-3.4,1.9,-5.9,5.1,-7.5,9.5c-1.3,3.3,-1.6,6,-.9,8.1c.6,2.1,2.1,3.7,4.6,4.6c2.3,.8,5,.4,8.3,-1.4c3.1,-1.7,5.2,-3.7,6.4,-6c1.6,-2.4,3.7,-6.3,6.5,-11.6c-.7,-.9,-1.5,-1.7,-2.3,-2.3c-.8,-.6,-1.6,-1.1,-2.5,-1.4Zm4,-9.3c2.5,1,4.7,2.1,6.3,3.5c1.6,1.3,2.8,2.8,3.4,4.6c3.4,1.7,4.4,4.4,3,8.1c-.7,1.9,-2,4.3,-3.8,7.4c-3.6,6,-6.8,12.6,-9.7,19.7c-3.6,8.8,-7.6,14.7,-11.8,17.7c-5.6,4,-13,4.3,-22.2,.9C613.6,222.7,609,218.6,610.6,214.4c.6,-1.5,1.5,-2.6,2.9,-3.2c1.3,-.5,2.7,-.5,4.3,0c1.2,.5,2.9,1.4,5.1,2.7c2.1,1.4,4.1,2.4,5.9,3.1c4.1,1.5,7.6,1.4,10.5,-.4c2.8,-1.7,5.3,-5.2,7.7,-10.4c-2,.9,-4,1.3,-6,1.4c-2,.1,-4.1,-.3,-6.2,-1.1c-5.5,-2.1,-9.3,-5.5,-11.3,-10.4c-2.1,-4.8,-2.1,-10,-.1,-15.6c2.9,-7.5,7.4,-12.7,13.7,-15.6c6.6,-3,13.9,-3,22,0Z" class="g1_1" />
<path d="M655.1,174.2c-4.7,-1.8,-8.8,-1.6,-12.6,.5c-3.4,1.9,-5.9,5.1,-7.5,9.5c-1.3,3.3,-1.6,6,-.9,8.1c.6,2.1,2.1,3.7,4.6,4.6c2.3,.8,5,.4,8.3,-1.4c3.1,-1.7,5.2,-3.7,6.4,-6c1.6,-2.4,3.7,-6.3,6.5,-11.6c-.7,-.9,-1.5,-1.7,-2.3,-2.3c-.8,-.6,-1.6,-1.1,-2.5,-1.4Zm4,-9.3c2.5,1,4.7,2.1,6.3,3.5c1.6,1.3,2.8,2.8,3.4,4.6c3.4,1.7,4.4,4.4,3,8.1c-.7,1.9,-2,4.3,-3.8,7.4c-3.6,6,-6.8,12.6,-9.7,19.7c-3.6,8.8,-7.6,14.7,-11.8,17.7c-5.6,4,-13,4.3,-22.2,.9C613.6,222.7,609,218.6,610.6,214.4c.6,-1.5,1.5,-2.6,2.9,-3.2c1.3,-.5,2.7,-.5,4.3,0c1.2,.5,2.9,1.4,5.1,2.7c2.1,1.4,4.1,2.4,5.9,3.1c4.1,1.5,7.6,1.4,10.5,-.4c2.8,-1.7,5.3,-5.2,7.7,-10.4c-2,.9,-4,1.3,-6,1.4c-2,.1,-4.1,-.3,-6.2,-1.1c-5.5,-2.1,-9.3,-5.5,-11.3,-10.4c-2.1,-4.8,-2.1,-10,-.1,-15.6c2.9,-7.5,7.4,-12.7,13.7,-15.6c6.6,-3,13.9,-3,22,0Z" class="g2_1" />

</svg>
